<svg width="38" height="38" viewBox="0 0 38 38" fill="none" xmlns="http://www.w3.org/2000/svg">
<mask id="mask0_1_114" style="mask-type:alpha" maskUnits="userSpaceOnUse" x="0" y="0" width="38" height="38">
<rect width="38" height="38" fill="#D9D9D9"/>
</mask>
<g mask="url(#mask0_1_114)">
<path d="M8.40394 32.4583C7.60415 32.4583 6.92716 32.1812 6.373 31.627C5.81883 31.0729 5.54175 30.3959 5.54175 29.5961V8.40388C5.54175 7.60409 5.81883 6.9271 6.373 6.37294C6.92716 5.81877 7.60415 5.54169 8.40394 5.54169H29.5961C30.3959 5.54169 31.0729 5.81877 31.6271 6.37294C32.1813 6.9271 32.4583 7.60409 32.4583 8.40388V29.5961C32.4583 30.3959 32.1813 31.0729 31.6271 31.627C31.0729 32.1812 30.3959 32.4583 29.5961 32.4583H8.40394ZM8.40394 30.0833H29.5961C29.718 30.0833 29.8296 30.0326 29.9311 29.9311C30.0326 29.8296 30.0834 29.7179 30.0834 29.5961V8.40388C30.0834 8.28207 30.0326 8.1704 29.9311 8.06889C29.8296 7.96739 29.718 7.91665 29.5961 7.91665H8.40394C8.28213 7.91665 8.17046 7.96739 8.06895 8.06889C7.96745 8.1704 7.91671 8.28207 7.91671 8.40388V29.5961C7.91671 29.7179 7.96745 29.8296 8.06895 29.9311C8.17046 30.0326 8.28213 30.0833 8.40394 30.0833Z" fill="#474741"/>
</g>
</svg>