<svg width="52" height="50" viewBox="0 0 52 50" fill="none" xmlns="http://www.w3.org/2000/svg">
<g id="LogoCNP logo" clip-path="url(#clip0_1_143)">
<g id="g3773">
<g id="#fedb02ff">
<path id="path5" d="M24.4114 0.0634684C30.9881 -0.416116 37.6683 1.84667 42.6106 6.02169C45.9702 8.81182 48.4989 12.4869 49.995 16.4994C51.2356 19.9002 51.6981 23.554 51.4236 27.1447C50.8006 34.5824 46.5752 41.6989 40.0977 45.8374C33.578 50.1617 24.8485 51.2032 17.425 48.5553C10.3129 46.1086 4.51961 40.4319 2.04476 33.5714C0.940369 30.7101 0.492699 27.6416 0.50009 24.5985C0.549714 16.3023 5.20379 8.15544 12.5312 3.76094C16.0788 1.58147 20.2102 0.305293 24.4114 0.0634684ZM17.6615 4.57684C17.6857 5.88554 18.6761 6.88332 19.7974 7.49601C18.806 8.84128 17.4598 9.87971 16.2076 10.9862C17.8895 10.659 19.5345 10.1794 21.2027 9.79842C22.1888 9.54745 23.2785 9.50783 24.1453 8.93984C24.7101 8.59946 25.1768 8.01624 25.1547 7.34563C24.9129 6.31026 23.9299 5.68639 22.9765 5.30841C21.2851 4.69471 19.4574 4.52706 17.6615 4.57684ZM35.829 8.00709C35.9621 8.49481 36.1173 8.97541 36.2809 9.45397C36.3707 9.65007 36.2419 9.84516 36.1352 10.0067C35.355 11.1041 34.4501 12.112 33.5527 13.1199C31.9193 14.9357 29.739 16.2108 27.4521 17.1222C27.4447 17.1852 27.4321 17.3102 27.4257 17.3722C28.0719 17.5703 28.755 17.6801 29.3758 17.9483C29.5786 18.1861 29.6694 18.4909 29.8056 18.7652C30.0305 19.2987 30.4391 19.824 30.2955 20.4306C29.9101 23.1618 29.7675 25.9143 29.6292 28.6648C29.6778 29.5772 29.2101 30.4307 29.3009 31.3401C29.5532 33.0674 30.1403 34.7907 31.2837 36.1705C31.5656 36.0049 31.8982 35.8067 31.932 35.4562C32.234 32.3958 32.3226 29.3201 32.5 26.2516C34.3636 26.7403 36.2619 26.1266 37.9006 25.2803C38.1086 28.4341 37.8858 31.5982 38.0252 34.7561C38.1529 37.1947 38.0515 39.6363 38.0927 42.0769C38.1022 43.2667 38.2564 44.5073 38.9268 45.5376C40.3195 45.1485 40.7175 43.602 40.8125 42.3776C40.9836 37.09 40.9941 31.7841 41.6794 26.526C41.7638 25.9143 41.8103 25.2843 41.6952 24.6737C41.5516 24.2804 41.2929 23.938 41.0744 23.5814C42.9347 23.0032 44.9471 22.67 46.5731 21.5675C46.2743 20.9335 45.965 20.2497 45.3061 19.888C44.434 19.4257 43.3613 19.132 42.3878 19.4866C39.1961 20.4875 36.4351 22.5003 33.1314 23.2166C33.3246 22.3895 33.6984 21.5655 33.5812 20.7008C33.4629 19.5232 32.6869 18.5366 31.8708 17.7024C34.2854 17.0399 36.3105 15.5636 38.476 14.4032C39.4716 13.7936 40.689 13.2612 41.199 12.172C41.2137 10.913 40.4546 9.7273 39.4516 8.96321C38.3789 8.2987 37.095 8.02437 35.829 8.00709ZM23.9647 9.78623C21.8552 11.8621 18.8144 12.6515 15.9162 13.0255C14.8181 13.2866 13.9376 12.4311 13.1763 11.8052C13.2259 12.5174 13.2608 13.2307 13.2893 13.944C14.7052 15.1297 16.5581 15.716 18.41 15.8461C17.69 16.477 16.8717 17.0278 15.932 17.3041C15.0631 17.5459 14.1603 17.6516 13.2618 17.7258C13.4318 19.2895 13.3727 21.1113 14.5721 22.3398C14.8308 22.6425 15.2647 22.4637 15.5678 22.3337C17.1568 21.5188 18.4185 20.2436 19.9378 19.3251C21.1383 18.5905 22.3514 17.8071 23.742 17.4484C22.9765 19.0558 21.813 20.4682 20.4193 21.6133C19.5841 22.3083 18.4892 22.5531 17.5041 22.9778C13.5026 24.6533 9.49677 26.3227 5.43396 27.8601C5.51315 28.5164 5.47408 29.3466 6.09385 29.7825C7.46853 30.4195 9.05861 30.6278 10.5642 30.4155C11.449 30.0416 12.0867 29.31 12.7836 28.6953C13.7253 27.8214 14.9058 27.2596 16.026 26.6357C17.2307 25.9671 18.4903 25.3199 19.884 25.1228C19.9589 25.7314 20.0255 26.342 20.0656 26.9537C17.9708 27.8296 15.8074 28.6506 13.5226 28.9086C13.7676 29.944 14.3969 30.9154 15.3936 31.4193C14.7284 32.475 13.8056 33.358 13.1119 34.3883C12.9863 35.5944 13.0781 36.9071 13.6863 37.9984C14.7812 37.7291 15.6924 37.0524 16.6236 36.4712C17.8272 38.4526 19.1196 40.5447 21.2365 41.7324C21.8087 41.9326 22.0537 41.2081 22.2353 40.8413C23.1264 38.7076 22.3757 36.3717 22.5795 34.1495C22.7104 32.5685 22.6355 30.9591 22.9089 29.3984C23.5086 28.9351 24.2752 28.6953 24.9118 28.2726C25.936 27.4811 27.4236 28.0816 28.4594 27.3185C28.7117 27.1559 28.8849 26.9151 29.0739 26.6936C28.4119 26.1327 27.6897 25.5749 26.8123 25.3778C25.6498 25.1167 24.3269 24.9145 23.27 25.5922C23.2573 25.1065 23.2045 24.6188 23.0715 24.1504C24.8442 23.5438 26.7521 23.5377 28.5734 23.1272C28.566 22.353 28.641 21.5574 28.4129 20.8045C28.1965 20.2944 27.5503 20.1989 27.072 20.0516C27.3307 18.8567 27.1512 17.5602 26.5747 16.473C26.1682 15.5656 24.9266 15.7587 24.102 15.5768C25.1842 14.453 26.4364 13.503 27.6443 12.5113C28.1025 12.1161 27.7214 11.4333 27.6865 10.9456C27.5482 10.1581 26.7563 9.69275 26.013 9.49563C25.3384 9.34221 24.4399 9.16135 23.9647 9.78623ZM26.4839 30.6725C25.558 30.4673 24.6204 30.3149 23.6733 30.2407C23.2785 30.9377 23.7356 31.6866 24.0534 32.3175C24.5961 33.4698 25.6794 34.3883 26.9855 34.6332C27.9558 32.9313 28.0286 30.9194 28.2472 29.0336C27.6179 29.5366 27.0393 30.0944 26.4839 30.6725Z" fill="#FEDB02"/>
<path id="path7" d="M17.5591 31.9546C18.4238 31.6996 19.1988 31.2251 20.0223 30.8745C20.0213 31.1529 20.0181 31.7107 20.016 31.9891C18.4703 32.8284 16.8739 33.5854 15.2109 34.1859C15.4337 33.3395 15.6069 32.4829 15.7304 31.6183C16.3238 31.7747 16.9351 32.0318 17.5591 31.9546Z" fill="#FEDB02"/>
<path id="path9" d="M17.2031 35.9701C18.1903 35.0587 19.2261 34.1605 19.9293 33.0154C19.9367 33.8679 19.9588 34.7203 19.9124 35.5728C19.8807 36.0981 19.2958 36.4863 18.7626 36.3847C18.1998 36.4334 17.7025 36.1652 17.2031 35.9701Z" fill="#FEDB02"/>
</g>
<g id="#0e1e8bff">
<path id="path12" d="M17.6648 4.57659C19.4608 4.52681 21.2884 4.69446 22.9798 5.30816C23.9332 5.68614 24.9162 6.31001 25.158 7.34538C25.1802 8.01599 24.7135 8.59921 24.1486 8.93959C23.2818 9.50757 22.1922 9.5472 21.206 9.79817C19.5378 10.1792 17.8929 10.6588 16.2109 10.986C17.4631 9.87946 18.8093 8.84103 19.8007 7.49576C18.6795 6.88307 17.6891 5.88529 17.6648 4.57659Z" fill="#0E1E8B"/>
<path id="path14" d="M35.833 8.00684C37.0989 8.02411 38.3828 8.29845 39.4555 8.96296C40.4586 9.72704 41.2177 10.9128 41.2029 12.1717C40.693 13.2609 39.4756 13.7933 38.4799 14.403C36.3145 15.5633 34.2894 17.0397 31.8747 17.7022C32.6909 18.5364 33.4669 19.523 33.5851 20.7006C33.7023 21.5653 33.3286 22.3893 33.1354 23.2164C36.439 22.5 39.2 20.4872 42.3918 19.4864C43.3652 19.1318 44.438 19.4254 45.3101 19.8877C45.9689 20.2494 46.2783 20.9333 46.5771 21.5673C44.9511 22.6697 42.9387 23.003 41.0783 23.5811C41.2969 23.9378 41.5556 24.2802 41.6992 24.6734C41.8142 25.2841 41.7678 25.914 41.6833 26.5257C40.9981 31.7839 40.9875 37.0898 40.8165 42.3774C40.7215 43.6017 40.3234 45.1482 38.9308 45.5374C38.2603 44.5071 38.1062 43.2664 38.0967 42.0766C38.0555 39.636 38.1569 37.1944 38.0291 34.7559C37.8897 31.5979 38.1125 28.4339 37.9045 25.28C36.2659 26.1264 34.3675 26.7401 32.504 26.2514C32.3266 29.3199 32.2379 32.3955 31.9359 35.4559C31.9022 35.8065 31.5696 36.0046 31.2877 36.1702C30.1442 34.7904 29.5572 33.0672 29.3048 31.3398C29.214 30.4305 29.6818 29.577 29.6332 28.6645C29.7715 25.914 29.914 23.1615 30.2994 20.4303C30.443 19.8237 30.0344 19.2984 29.8095 18.765C29.6733 18.4906 29.5825 18.1858 29.3798 17.9481C28.759 17.6798 28.0759 17.5701 27.4297 17.3719C27.436 17.31 27.4487 17.185 27.4561 17.122C29.743 16.2106 31.9233 14.9354 33.5566 13.1197C34.4541 12.1118 35.3589 11.1038 36.1392 10.0065C36.2458 9.8449 36.3746 9.64982 36.2849 9.45372C36.1212 8.97515 35.966 8.49455 35.833 8.00684Z" fill="#0E1E8B"/>
<path id="path16" d="M23.9683 9.786C24.4434 9.16112 25.3419 9.34198 26.0166 9.49541C26.7599 9.69253 27.5517 10.1579 27.6901 10.9453C27.7249 11.433 28.1061 12.1158 27.6478 12.5111C26.44 13.5028 25.1878 14.4528 24.1055 15.5766C24.9301 15.7585 26.1718 15.5654 26.5783 16.4727C27.1548 17.5599 27.3342 18.8564 27.0756 20.0513C27.5539 20.1987 28.2 20.2942 28.4165 20.8042C28.6445 21.5572 28.5696 22.3527 28.577 23.127C26.7557 23.5375 24.8478 23.5436 23.0751 24.1502C23.2081 24.6186 23.2609 25.1063 23.2735 25.592C24.3304 24.9142 25.6534 25.1164 26.8158 25.3776C27.6932 25.5747 28.4154 26.1325 29.0774 26.6934C28.8884 26.9149 28.7153 27.1557 28.4629 27.3183C27.4272 28.0813 25.9395 27.4808 24.9154 28.2723C24.2787 28.695 23.5122 28.9348 22.9125 29.3982C22.639 30.9588 22.714 32.5683 22.583 34.1493C22.3793 36.3714 23.13 38.7074 22.2388 40.8411C22.0572 41.2079 21.8123 41.9324 21.24 41.7322C19.1231 40.5444 17.8308 38.4523 16.6271 36.471C15.6959 37.0522 14.7847 37.7289 13.6898 37.9982C13.0817 36.9069 12.9898 35.5941 13.1155 34.3881C13.8091 33.3578 14.7319 32.4748 15.3971 31.4191C14.4004 30.9151 13.7711 29.9438 13.5262 28.9084C15.811 28.6503 17.9744 27.8293 20.0691 26.9535C20.029 26.3418 19.9625 25.7312 19.8875 25.1225C18.4938 25.3197 17.2342 25.9669 16.0295 26.6355C14.9093 27.2593 13.7289 27.8212 12.7871 28.695C12.0903 29.3098 11.4525 30.0413 10.5678 30.4152C9.06215 30.6276 7.47207 30.4193 6.09739 29.7822C5.47762 29.3463 5.51669 28.5162 5.4375 27.8598C9.50031 26.3225 13.5061 24.6531 17.5077 22.9776C18.4928 22.5529 19.5877 22.308 20.4228 21.613C21.8165 20.4679 22.98 19.0556 23.7455 17.4482C22.355 17.8068 21.1418 18.5902 19.9414 19.3249C18.422 20.2434 17.1603 21.5185 15.5713 22.3334C15.2683 22.4635 14.8343 22.6423 14.5757 22.3395C13.3762 21.1111 13.4354 19.2893 13.2654 17.7256C14.1639 17.6514 15.0666 17.5457 15.9356 17.3039C16.8752 17.0275 17.6935 16.4768 18.4136 15.8458C16.5617 15.7158 14.7087 15.1295 13.2928 13.9438C13.2643 13.2305 13.2295 12.5172 13.1799 11.8049C13.9411 12.4308 14.8217 13.2864 15.9197 13.0252C18.818 12.6513 21.8587 11.8618 23.9683 9.786ZM17.5658 31.9546C16.9418 32.0318 16.3304 31.7747 15.7371 31.6183C15.6135 32.4829 15.4404 33.3395 15.2176 34.1859C16.8805 33.5854 18.4769 32.8284 20.0227 31.9891C20.0248 31.7107 20.0279 31.1529 20.029 30.8745C19.2055 31.225 18.4305 31.6995 17.5658 31.9546ZM17.2089 35.9701C17.7083 36.1652 18.2056 36.4334 18.7683 36.3846C19.3015 36.4862 19.8865 36.0981 19.9181 35.5728C19.9646 34.7203 19.9424 33.8678 19.935 33.0154C19.2318 34.1605 18.1961 35.0587 17.2089 35.9701Z" fill="#0E1E8B"/>
<path id="path18" d="M26.491 30.6724C27.0464 30.0942 27.625 29.5364 28.2543 29.0334C28.0357 30.9193 27.9629 32.9311 26.9926 34.633C25.6865 34.3881 24.6032 33.4696 24.0605 32.3174C23.7427 31.6864 23.2856 30.9376 23.6804 30.2405C24.6275 30.3147 25.5651 30.4671 26.491 30.6724Z" fill="#0E1E8B"/>
</g>
</g>
</g>
<defs>
<clipPath id="clip0_1_143">
<rect width="51" height="50" fill="white" transform="translate(0.5)"/>
</clipPath>
</defs>
</svg>
