<svg width="140" height="140" viewBox="0 0 140 140" fill="none" xmlns="http://www.w3.org/2000/svg">
<mask id="mask0_1_358" style="mask-type:alpha" maskUnits="userSpaceOnUse" x="0" y="0" width="140" height="140">
<rect x="0.5" y="0.5" width="139" height="139" fill="#D9D9D9"/>
</mask>
<g mask="url(#mask0_1_358)">
<path d="M70.0194 122.125C62.8114 122.125 56.0347 120.757 49.6892 118.022C43.3438 115.286 37.8241 111.574 33.1301 106.884C28.4362 102.195 24.7203 96.6801 21.9822 90.3406C19.2441 84.0011 17.875 77.2273 17.875 70.0194C17.875 62.8114 19.2433 56.0347 21.9798 49.6892C24.7164 43.3438 28.4303 37.8241 33.1216 33.1301C37.8128 28.4362 43.3294 24.7203 49.6713 21.9822C56.0131 19.2441 62.7894 17.875 70 17.875C75.9277 17.875 81.5361 18.792 86.8254 20.626C92.1147 22.4601 96.9387 25.0181 101.297 28.3L97.1318 32.6103C93.3152 29.7739 89.1171 27.5742 84.5375 26.0111C79.958 24.4482 75.1121 23.6667 70 23.6667C57.1618 23.6667 46.23 28.1793 37.2047 37.2047C28.1793 46.23 23.6667 57.1618 23.6667 70C23.6667 82.8382 28.1793 93.77 37.2047 102.795C46.23 111.821 57.1618 116.333 70 116.333C82.8382 116.333 93.77 111.821 102.795 102.795C111.821 93.77 116.333 82.8382 116.333 70C116.333 67.6685 116.163 65.3818 115.821 63.1399C115.479 60.8981 114.967 58.7185 114.284 56.6013L118.906 51.8676C119.968 54.7337 120.77 57.6742 121.312 60.6892C121.854 63.7041 122.125 66.8077 122.125 70C122.125 77.2106 120.757 83.9869 118.022 90.3288C115.286 96.6706 111.574 102.187 106.884 106.878C102.195 111.57 96.6801 115.284 90.3406 118.02C84.0011 120.757 77.2273 122.125 70.0194 122.125ZM61.669 92.6321L41.064 72.0271L45.1627 67.9283L61.669 84.4346L118.026 28.0439L122.125 32.1425L61.669 92.6321Z" fill="#008000"/>
</g>
</svg>