<svg width="48" height="48" viewBox="0 0 48 48" fill="none" xmlns="http://www.w3.org/2000/svg">
<rect width="48" height="48" rx="24" fill="#DCDAD2"/>
<mask id="mask0_1_210" style="mask-type:alpha" maskUnits="userSpaceOnUse" x="12" y="12" width="24" height="24">
<rect x="12" y="12" width="24" height="24" fill="#D9D9D9"/>
</mask>
<g mask="url(#mask0_1_210)">
<path d="M13.7981 31.3076V29.0846C13.7981 28.5692 13.9311 28.1093 14.1971 27.7048C14.4632 27.3003 14.8184 26.9856 15.2629 26.7607C16.2133 26.2959 17.1689 25.9375 18.1298 25.6856C19.0907 25.4337 20.1468 25.3077 21.2981 25.3077C22.4494 25.3077 23.5054 25.4337 24.4663 25.6856C25.4272 25.9375 26.3828 26.2959 27.3332 26.7607C27.7777 26.9856 28.133 27.3003 28.399 27.7048C28.665 28.1093 28.798 28.5692 28.798 29.0846V31.3076H13.7981ZM30.798 31.3076V28.9615C30.798 28.3051 30.6373 27.6795 30.3159 27.0848C29.9944 26.49 29.5385 25.9797 28.9481 25.5538C29.6186 25.6538 30.2551 25.8087 30.8576 26.0183C31.4602 26.2279 32.0352 26.4756 32.5826 26.7615C33.0993 27.0372 33.4983 27.362 33.7797 27.7361C34.0611 28.1102 34.2018 28.5187 34.2018 28.9615V31.3076H30.798ZM21.2981 23.6922C20.3356 23.6922 19.5116 23.3495 18.8262 22.6641C18.1408 21.9787 17.7981 21.1548 17.7981 20.1923C17.7981 19.2298 18.1408 18.4058 18.8262 17.7204C19.5116 17.035 20.3356 16.6923 21.2981 16.6923C22.2606 16.6923 23.0845 17.035 23.7699 17.7204C24.4553 18.4058 24.798 19.2298 24.798 20.1923C24.798 21.1548 24.4553 21.9787 23.7699 22.6641C23.0845 23.3495 22.2606 23.6922 21.2981 23.6922ZM29.9326 20.1923C29.9326 21.1548 29.5899 21.9787 28.9045 22.6641C28.2191 23.3495 27.3951 23.6922 26.4326 23.6922C26.3198 23.6922 26.1762 23.6794 26.0019 23.6538C25.8275 23.6282 25.6839 23.6 25.5711 23.5692C25.9655 23.0951 26.2686 22.5691 26.4803 21.9913C26.6921 21.4134 26.798 20.8134 26.798 20.1911C26.798 19.5688 26.69 18.9712 26.474 18.3981C26.258 17.825 25.957 17.2974 25.5711 16.8154C25.7147 16.7641 25.8583 16.7308 26.0019 16.7154C26.1455 16.7 26.289 16.6923 26.4326 16.6923C27.3951 16.6923 28.2191 17.035 28.9045 17.7204C29.5899 18.4058 29.9326 19.2298 29.9326 20.1923ZM15.2981 29.8076H27.2981V29.0846C27.2981 28.8756 27.2458 28.6897 27.1413 28.5269C27.0368 28.3641 26.8711 28.2217 26.6442 28.0999C25.8211 27.6756 24.9737 27.3541 24.1019 27.1355C23.2301 26.9169 22.2955 26.8076 21.2981 26.8076C20.3006 26.8076 19.366 26.9169 18.4942 27.1355C17.6224 27.3541 16.775 27.6756 15.9519 28.0999C15.725 28.2217 15.5593 28.3641 15.4548 28.5269C15.3503 28.6897 15.2981 28.8756 15.2981 29.0846V29.8076ZM21.2981 22.1923C21.8481 22.1923 22.3189 21.9965 22.7106 21.6048C23.1022 21.2131 23.2981 20.7423 23.2981 20.1923C23.2981 19.6423 23.1022 19.1715 22.7106 18.7798C22.3189 18.3881 21.8481 18.1923 21.2981 18.1923C20.7481 18.1923 20.2772 18.3881 19.8856 18.7798C19.4939 19.1715 19.2981 19.6423 19.2981 20.1923C19.2981 20.7423 19.4939 21.2131 19.8856 21.6048C20.2772 21.9965 20.7481 22.1923 21.2981 22.1923Z" fill="#474741"/>
</g>
</svg>